{
  "accessors": [
    {
      "bufferView": 2,
      "componentType": 5126,
      "count": 36,
      "max": [
        126.13139343261719,
        245.50889587402344,
        56.649299621582031
      ],
      "min": [
        71.222900390625,
        91.939598083496094,
        0
      ],
      "type": "VEC3"
    },
    {
      "bufferView": 2,
      "byteOffset": 432,
      "componentType": 5126,
      "count": 36,
      "max": [
        0,
        1,
        -0
      ],
      "min": [
        -1,
        -0.81915682554244995,
        -0
      ],
      "type": "VEC3"
    },
    {
      "bufferView": 3,
      "componentType": 5126,
      "count": 36,
      "max": [
        0.81915676593780518,
        0,
        0,
        1
      ],
      "min": [
        -1,
        -1,
        0,
        1
      ],
      "type": "VEC4"
    },
    {
      "bufferView": 1,
      "componentType": 5126,
      "count": 36,
      "max": [
        0.96069997549057007,
        0.97020000219345093
      ],
      "min": [
        0.037900000810623169,
        0.031300000846385956
      ],
      "type": "VEC2"
    },
    {
      "bufferView": 0,
      "componentType": 5125,
      "count": 54,
      "max": [
        35
      ],
      "min": [
        0
      ],
      "type": "SCALAR"
    },
    {
      "bufferView": 2,
      "byteOffset": 864,
      "componentType": 5126,
      "count": 580,
      "max": [
        81.632400512695312,
        262.50860595703125,
        27.015600204467773
      ],
      "min": [
        3.3906993865966797,
        155.13189697265625,
        1.2815999984741211
      ],
      "type": "VEC3"
    },
    {
      "bufferView": 2,
      "byteOffset": 7824,
      "componentType": 5126,
      "count": 580,
      "max": [
        0.98688668012619019,
        0.99768096208572388,
        1
      ],
      "min": [
        -1,
        -0.99729526042938232,
        -0.97052198648452759
      ],
      "type": "VEC3"
    },
    {
      "bufferView": 3,
      "byteOffset": 576,
      "componentType": 5126,
      "count": 580,
      "max": [
        1,
        0.99815618991851807,
        0.99885940551757812,
        1
      ],
      "min": [
        -0.99733197689056396,
        -1,
        -0.99969840049743652,
        1
      ],
      "type": "VEC4"
    },
    {
      "bufferView": 1,
      "byteOffset": 288,
      "componentType": 5126,
      "count": 580,
      "max": [
        0.99360001087188721,
        0.98500001430511475
      ],
      "min": [
        0.011800000444054604,
        0.026100000366568565
      ],
      "type": "VEC2"
    },
    {
      "bufferView": 0,
      "byteOffset": 216,
      "componentType": 5125,
      "count": 1986,
      "max": [
        579
      ],
      "min": [
        0
      ],
      "type": "SCALAR"
    },
    {
      "bufferView": 2,
      "byteOffset": 14784,
      "componentType": 5126,
      "count": 482,
      "max": [
        90.158294677734375,
        216.93960571289062,
        77.027496337890625
      ],
      "min": [
        0,
        0,
        1.3511999845504761
      ],
      "type": "VEC3"
    },
    {
      "bufferView": 2,
      "byteOffset": 20568,
      "componentType": 5126,
      "count": 482,
      "max": [
        0.70800626277923584,
        1,
        1
      ],
      "min": [
        -1,
        -1,
        -1
      ],
      "type": "VEC3"
    },
    {
      "bufferView": 3,
      "byteOffset": 9856,
      "componentType": 5126,
      "count": 482,
      "max": [
        1,
        0.86167919635772705,
        1,
        1
      ],
      "min": [
        -1,
        -1,
        -1,
        -1
      ],
      "type": "VEC4"
    },
    {
      "bufferView": 1,
      "byteOffset": 4928,
      "componentType": 5126,
      "count": 482,
      "max": [
        0.99279999732971191,
        0.98570001125335693
      ],
      "min": [
        -0.98799997568130493,
        0.0048000002279877663
      ],
      "type": "VEC2"
    },
    {
      "bufferView": 0,
      "byteOffset": 8160,
      "componentType": 5125,
      "count": 1245,
      "max": [
        481
      ],
      "min": [
        0
      ],
      "type": "SCALAR"
    },
    {
      "bufferView": 2,
      "byteOffset": 26352,
      "componentType": 5126,
      "count": 2239,
      "max": [
        125.72219848632812,
        245.10479736328125,
        53.080398559570312
      ],
      "min": [
        1.4235000610351562,
        34.237602233886719,
        1.5613999366760254
      ],
      "type": "VEC3"
    },
    {
      "bufferView": 2,
      "byteOffset": 53220,
      "componentType": 5126,
      "count": 2239,
      "max": [
        1,
        1,
        1
      ],
      "min": [
        -1,
        -1,
        -1
      ],
      "type": "VEC3"
    },
    {
      "bufferView": 3,
      "byteOffset": 17568,
      "componentType": 5126,
      "count": 2239,
      "max": [
        0.99999368190765381,
        1,
        1,
        1
      ],
      "min": [
        -1,
        -1,
        -0.99895715713500977,
        -1
      ],
      "type": "VEC4"
    },
    {
      "bufferView": 1,
      "byteOffset": 8784,
      "componentType": 5126,
      "count": 2239,
      "max": [
        0.99330002069473267,
        3.1077001094818115
      ],
      "min": [
        -2.1206998825073242,
        0.014499999582767487
      ],
      "type": "VEC2"
    },
    {
      "bufferView": 0,
      "byteOffset": 13140,
      "componentType": 5125,
      "count": 7944,
      "max": [
        2238
      ],
      "min": [
        0
      ],
      "type": "SCALAR"
    },
    {
      "bufferView": 2,
      "byteOffset": 80088,
      "componentType": 5126,
      "count": 216,
      "max": [
        45.617500305175781,
        273.13949584960938,
        57.935199737548828
      ],
      "min": [
        2.0534000396728516,
        197.09469604492188,
        1.4512999057769775
      ],
      "type": "VEC3"
    },
    {
      "bufferView": 2,
      "byteOffset": 82680,
      "componentType": 5126,
      "count": 216,
      "max": [
        1,
        1,
        1
      ],
      "min": [
        -0.74988704919815063,
        -1,
        -1
      ],
      "type": "VEC3"
    },
    {
      "bufferView": 3,
      "byteOffset": 53392,
      "componentType": 5126,
      "count": 216,
      "max": [
        0.99998372793197632,
        1,
        1,
        1
      ],
      "min": [
        -0.99998378753662109,
        -1,
        -0.07582777738571167,
        -1
      ],
      "type": "VEC4"
    },
    {
      "bufferView": 1,
      "byteOffset": 26696,
      "componentType": 5126,
      "count": 216,
      "max": [
        0.98750001192092896,
        0.96109998226165771
      ],
      "min": [
        0.025200000032782555,
        0.020500000566244125
      ],
      "type": "VEC2"
    },
    {
      "bufferView": 0,
      "byteOffset": 44916,
      "componentType": 5125,
      "count": 558,
      "max": [
        215
      ],
      "min": [
        0
      ],
      "type": "SCALAR"
    },
    {
      "bufferView": 2,
      "byteOffset": 85272,
      "componentType": 5126,
      "count": 788,
      "max": [
        158.37239074707031,
        253.40960693359375,
        31.81089973449707
      ],
      "min": [
        66.669403076171875,
        30.769302368164062,
        1.3235999345779419
      ],
      "type": "VEC3"
    },
    {
      "bufferView": 2,
      "byteOffset": 94728,
      "componentType": 5126,
      "count": 788,
      "max": [
        0.99783271551132202,
        1,
        1
      ],
      "min": [
        -1,
        -1,
        -1
      ],
      "type": "VEC3"
    },
    {
      "bufferView": 3,
      "byteOffset": 56848,
      "componentType": 5126,
      "count": 788,
      "max": [
        1,
        1,
        1,
        1
      ],
      "min": [
        -0.9991527795791626,
        -1,
        -1,
        1
      ],
      "type": "VEC4"
    },
    {
      "bufferView": 1,
      "byteOffset": 28424,
      "componentType": 5126,
      "count": 788,
      "max": [
        0.99370002746582031,
        0.98900002241134644
      ],
      "min": [
        0.0063000000081956387,
        0.011699999682605267
      ],
      "type": "VEC2"
    },
    {
      "bufferView": 0,
      "byteOffset": 47148,
      "componentType": 5125,
      "count": 2112,
      "max": [
        787
      ],
      "min": [
        0
      ],
      "type": "SCALAR"
    },
    {
      "bufferView": 2,
      "byteOffset": 104184,
      "componentType": 5126,
      "count": 119,
      "max": [
        176.52178955078125,
        272.99920654296875,
        73.086997985839844
      ],
      "min": [
        1.5175991058349609,
        23.924896240234375,
        0.5955999493598938
      ],
      "type": "VEC3"
    },
    {
      "bufferView": 2,
      "byteOffset": 105612,
      "componentType": 5126,
      "count": 119,
      "max": [
        9.9999997473787516e-05,
        1,
        1
      ],
      "min": [
        -1,
        -1,
        -1
      ],
      "type": "VEC3"
    },
    {
      "bufferView": 3,
      "byteOffset": 69456,
      "componentType": 5126,
      "count": 119,
      "max": [
        0.78389298915863037,
        0.59029430150985718,
        0.79206633567810059,
        1
      ],
      "min": [
        -1,
        -1,
        -1,
        -1
      ],
      "type": "VEC4"
    },
    {
      "bufferView": 1,
      "byteOffset": 34728,
      "componentType": 5126,
      "count": 119,
      "max": [
        0.9812999963760376,
        0.97970002889633179
      ],
      "min": [
        0.012000000104308128,
        0.006399999838322401
      ],
      "type": "VEC2"
    },
    {
      "bufferView": 0,
      "byteOffset": 55596,
      "componentType": 5125,
      "count": 330,
      "max": [
        118
      ],
      "min": [
        0
      ],
      "type": "SCALAR"
    }
  ],
  "asset": {
    "extras": {
      "author": "Nadia Ribitis (https://sketchfab.com/ribitis)",
      "license": "CC-BY-4.0 (http://creativecommons.org/licenses/by/4.0/)",
      "source": "https://sketchfab.com/models/40736fa5298c4e738633c51be872c4b1",
      "title": "Messy Tavern"
    },
    "generator": "Sketchfab-3.19.6",
    "version": "2.0"
  },
  "bufferViews": [
    {
      "buffer": 0,
      "byteLength": 56916,
      "byteOffset": 0,
      "name": "floatBufferViews",
      "target": 34963
    },
    {
      "buffer": 0,
      "byteLength": 35680,
      "byteOffset": 56916,
      "byteStride": 8,
      "name": "floatBufferViews",
      "target": 34962
    },
    {
      "buffer": 0,
      "byteLength": 107040,
      "byteOffset": 92596,
      "byteStride": 12,
      "name": "floatBufferViews",
      "target": 34962
    },
    {
      "buffer": 0,
      "byteLength": 71360,
      "byteOffset": 199636,
      "byteStride": 16,
      "name": "floatBufferViews",
      "target": 34962
    }
  ],
  "buffers": [
    {
      "byteLength": 270996,
      "uri": "scene.bin"
    }
  ],
  "extensionsRequired": [
    "KHR_materials_pbrSpecularGlossiness"
  ],
  "extensionsUsed": [
    "KHR_materials_pbrSpecularGlossiness"
  ],
  "images": [
    {
      "uri": "textures/Flames_diffuse.png"
    },
    {
      "uri": "textures/Barrels_diffuse.jpeg"
    },
    {
      "uri": "textures/Stairs_diffuse.jpeg"
    },
    {
      "uri": "textures/Fireplace_diffuse.jpeg"
    },
    {
      "uri": "textures/Fireplace_normal.png"
    },
    {
      "uri": "textures/Tables_Tabourets_diffuse.jpeg"
    },
    {
      "uri": "textures/Tables_Tabourets_normal.png"
    },
    {
      "uri": "textures/Misc_diffuse.png"
    },
    {
      "uri": "textures/Misc_normal.png"
    },
    {
      "uri": "textures/Wall_Ground_diffuse.png"
    },
    {
      "uri": "textures/Wall_Ground_normal.png"
    }
  ],
  "materials": [
    {
      "doubleSided": true,
      "emissiveFactor": [
        0,
        0,
        0
      ],
      "extensions": {
        "KHR_materials_pbrSpecularGlossiness": {
          "diffuseFactor": [
            1,
            1,
            1,
            1
          ],
          "diffuseTexture": {
            "index": 1,
            "texCoord": 0
          },
          "glossinessFactor": 0.40000000000000002,
          "specularFactor": [
            0,
            0,
            0
          ]
        }
      },
      "name": "Barrels"
    },
    {
      "doubleSided": true,
      "emissiveFactor": [
        0,
        0,
        0
      ],
      "extensions": {
        "KHR_materials_pbrSpecularGlossiness": {
          "diffuseFactor": [
            1,
            1,
            1,
            1
          ],
          "diffuseTexture": {
            "index": 3,
            "texCoord": 0
          },
          "glossinessFactor": 0.35194359760000005,
          "specularFactor": [
            0,
            0,
            0
          ]
        }
      },
      "name": "Fireplace",
      "normalTexture": {
        "index": 4,
        "scale": 0.40000000000000002,
        "texCoord": 0
      }
    },
    {
      "alphaMode": "BLEND",
      "doubleSided": true,
      "emissiveFactor": [
        0,
        0,
        0
      ],
      "extensions": {
        "KHR_materials_pbrSpecularGlossiness": {
          "diffuseFactor": [
            1,
            1,
            1,
            1
          ],
          "diffuseTexture": {
            "index": 0,
            "texCoord": 0
          },
          "glossinessFactor": 0.40000000000000002,
          "specularFactor": [
            0,
            0,
            0
          ]
        }
      },
      "name": "Flames"
    },
    {
      "alphaMode": "BLEND",
      "doubleSided": true,
      "emissiveFactor": [
        0,
        0,
        0
      ],
      "extensions": {
        "KHR_materials_pbrSpecularGlossiness": {
          "diffuseFactor": [
            1,
            1,
            1,
            1
          ],
          "diffuseTexture": {
            "index": 7,
            "texCoord": 0
          },
          "glossinessFactor": 0.40000000000000002,
          "specularFactor": [
            0,
            0,
            0
          ]
        }
      },
      "name": "Misc",
      "normalTexture": {
        "index": 8,
        "scale": 0.80000000000000004,
        "texCoord": 0
      }
    },
    {
      "doubleSided": true,
      "emissiveFactor": [
        0,
        0,
        0
      ],
      "extensions": {
        "KHR_materials_pbrSpecularGlossiness": {
          "diffuseFactor": [
            1,
            1,
            1,
            1
          ],
          "diffuseTexture": {
            "index": 2,
            "texCoord": 0
          },
          "glossinessFactor": 0.40000000000000002,
          "specularFactor": [
            0,
            0,
            0
          ]
        }
      },
      "name": "Stairs"
    },
    {
      "doubleSided": true,
      "emissiveFactor": [
        0,
        0,
        0
      ],
      "extensions": {
        "KHR_materials_pbrSpecularGlossiness": {
          "diffuseFactor": [
            1,
            1,
            1,
            1
          ],
          "diffuseTexture": {
            "index": 5,
            "texCoord": 0
          },
          "glossinessFactor": 0.40000000000000002,
          "specularFactor": [
            0,
            0,
            0
          ]
        }
      },
      "name": "Tables_Tabourets",
      "normalTexture": {
        "index": 6,
        "scale": 1,
        "texCoord": 0
      }
    },
    {
      "alphaMode": "BLEND",
      "doubleSided": true,
      "emissiveFactor": [
        0,
        0,
        0
      ],
      "extensions": {
        "KHR_materials_pbrSpecularGlossiness": {
          "diffuseFactor": [
            1,
            1,
            1,
            1
          ],
          "diffuseTexture": {
            "index": 9,
            "texCoord": 0
          },
          "glossinessFactor": 0.35804115849999996,
          "specularFactor": [
            0,
            0,
            0
          ]
        }
      },
      "name": "Wall_Ground",
      "normalTexture": {
        "index": 10,
        "scale": 0.55000000000000004,
        "texCoord": 0
      }
    }
  ],
  "meshes": [
    {
      "primitives": [
        {
          "attributes": {
            "NORMAL": 1,
            "POSITION": 0,
            "TANGENT": 2,
            "TEXCOORD_0": 3
          },
          "indices": 4,
          "material": 2,
          "mode": 4
        }
      ]
    },
    {
      "primitives": [
        {
          "attributes": {
            "NORMAL": 6,
            "POSITION": 5,
            "TANGENT": 7,
            "TEXCOORD_0": 8
          },
          "indices": 9,
          "material": 0,
          "mode": 4
        }
      ]
    },
    {
      "primitives": [
        {
          "attributes": {
            "NORMAL": 11,
            "POSITION": 10,
            "TANGENT": 12,
            "TEXCOORD_0": 13
          },
          "indices": 14,
          "material": 1,
          "mode": 4
        }
      ]
    },
    {
      "primitives": [
        {
          "attributes": {
            "NORMAL": 16,
            "POSITION": 15,
            "TANGENT": 17,
            "TEXCOORD_0": 18
          },
          "indices": 19,
          "material": 3,
          "mode": 4
        }
      ]
    },
    {
      "primitives": [
        {
          "attributes": {
            "NORMAL": 21,
            "POSITION": 20,
            "TANGENT": 22,
            "TEXCOORD_0": 23
          },
          "indices": 24,
          "material": 4,
          "mode": 4
        }
      ]
    },
    {
      "primitives": [
        {
          "attributes": {
            "NORMAL": 26,
            "POSITION": 25,
            "TANGENT": 27,
            "TEXCOORD_0": 28
          },
          "indices": 29,
          "material": 5,
          "mode": 4
        }
      ]
    },
    {
      "primitives": [
        {
          "attributes": {
            "NORMAL": 31,
            "POSITION": 30,
            "TANGENT": 32,
            "TEXCOORD_0": 33
          },
          "indices": 34,
          "material": 6,
          "mode": 4
        }
      ]
    }
  ],
  "nodes": [
    {
      "children": [
        1
      ],
      "name": "RootNode (gltf orientation matrix)",
      "rotation": [
        -0.70710678118654746,
        -0,
        -0,
        0.70710678118654757
      ]
    },
    {
      "children": [
        2
      ],
      "name": "RootNode (model correction matrix)"
    },
    {
      "children": [
        3
      ],
      "matrix": [
        1,
        0,
        0,
        0,
        0,
        1,
        0,
        0,
        0,
        0,
        1,
        0,
        -26.020999908447266,
        -99.088699340820312,
        -1.5708999633789062,
        1
      ],
      "name": "Tavern.obj.cleaner.gles"
    },
    {
      "children": [
        4,
        5,
        6,
        7,
        8,
        9,
        10
      ],
      "name": ""
    },
    {
      "mesh": 0,
      "name": ""
    },
    {
      "mesh": 1,
      "name": ""
    },
    {
      "mesh": 2,
      "name": ""
    },
    {
      "mesh": 3,
      "name": ""
    },
    {
      "mesh": 4,
      "name": ""
    },
    {
      "mesh": 5,
      "name": ""
    },
    {
      "mesh": 6,
      "name": ""
    }
  ],
  "samplers": [
    {
      "magFilter": 9729,
      "minFilter": 9987,
      "wrapS": 10497,
      "wrapT": 10497
    }
  ],
  "scene": 0,
  "scenes": [
    {
      "name": "OSG_Scene",
      "nodes": [
        0
      ]
    }
  ],
  "textures": [
    {
      "sampler": 0,
      "source": 0
    },
    {
      "sampler": 0,
      "source": 1
    },
    {
      "sampler": 0,
      "source": 2
    },
    {
      "sampler": 0,
      "source": 3
    },
    {
      "sampler": 0,
      "source": 4
    },
    {
      "sampler": 0,
      "source": 5
    },
    {
      "sampler": 0,
      "source": 6
    },
    {
      "sampler": 0,
      "source": 7
    },
    {
      "sampler": 0,
      "source": 8
    },
    {
      "sampler": 0,
      "source": 9
    },
    {
      "sampler": 0,
      "source": 10
    }
  ]
}

